<svg height="512pt" viewBox="0 0 512 512" width="512pt" xmlns="http://www.w3.org/2000/svg"><path d="m408 391.609375h-358c-22.09375 0-40-17.910156-40-40v-247.613281c0-22.089844 17.90625-40 40-40h358c22.09375 0 40 17.910156 40 40v247.613281c0 22.089844-17.90625 40-40 40zm0 0" fill="#fff"/><g fill="#72d8ff"><path d="m10 334.632812v21.367188c0 19.667969 15.941406 35.609375 35.609375 35.609375h366.78125c19.667969 0 35.613281-15.941406 35.613281-35.609375v-21.367188zm0 0"/><path d="m322.015625 502h-186.03125v-.160156c0-25.476563 20.65625-46.132813 46.136719-46.132813h93.757812c25.480469 0 46.136719 20.65625 46.136719 46.132813zm0 0"/><path d="m189.832031 391.609375h78.339844v64.097656h-78.339844zm0 0"/></g><path d="m274.941406 255.40625h-182.144531c-13.15625 0-23.824219-10.664062-23.824219-23.824219v-.351562c0-13.15625 10.667969-23.824219 23.824219-23.824219s23.824219-10.664062 23.824219-23.820312v-.355469c0-13.15625 10.664062-23.824219 23.824218-23.824219h140.523438zm0 0" fill="#a0e557"/><path d="m319.894531 146.804688 127.417969-127.417969c12.515625-12.515625 32.800781-12.515625 45.3125 0 12.515625 12.511719 12.515625 32.796875 0 45.3125l-127.417969 127.417969zm0 0" fill="#ffb954"/><path d="m399.914062 157.40625-34.707031 34.710938-45.308593-45.3125 34.707031-34.707032zm0 0" fill="#fff"/><path d="m280.414062 163.429688c-29.8125 29.8125 5.277344 62.890624-22.371093 90.539062 46.3125 5.089844 71.714843-3.546875 90.535156-22.371094 18.824219-18.824218 18.824219-49.34375 0-68.167968-18.820313-18.824219-49.339844-18.824219-68.164063 0zm0 0" fill="#62cd4d"/><path d="m349.179688 381.609375c-2.628907 0-5.207032 1.0625-7.070313 2.929687-1.855469 1.859376-2.929687 4.441407-2.929687 7.070313 0 2.632813 1.070312 5.210937 2.929687 7.070313 1.863281 1.859374 4.441406 2.929687 7.070313 2.929687 2.632812 0 5.210937-1.070313 7.070312-2.929687 1.871094-1.859376 2.929688-4.4375 2.929688-7.070313 0-2.628906-1.058594-5.210937-2.929688-7.070313-1.859375-1.867187-4.4375-2.929687-7.070312-2.929687zm0 0"/><path d="m221.929688 356.050781c-1.859376 1.859375-2.929688 4.4375-2.929688 7.070313 0 2.628906 1.070312 5.210937 2.929688 7.070312 1.863281 1.859375 4.441406 2.929688 7.070312 2.929688s5.210938-1.070313 7.070312-2.929688c1.859376-1.859375 2.929688-4.441406 2.929688-7.070312 0-2.632813-1.070312-5.210938-2.929688-7.070313-1.859374-1.859375-4.441406-2.929687-7.070312-2.929687s-5.210938 1.070312-7.070312 2.929687zm0 0"/><path d="m499.695312 12.3125c-7.9375-7.9375-18.496093-12.3125-29.726562-12.3125s-21.785156 4.371094-29.726562 12.3125l-41.734376 41.734375c-.332031-.03125-.667968-.050781-1.007812-.050781h-351.890625c-25.148437 0-45.609375 20.460937-45.609375 45.609375v256.394531c0 25.148438 20.460938 45.609375 45.609375 45.609375h134.21875v44.15625c-29.890625 1.207031-53.839844 25.890625-53.839844 56.074219v.160156c0 5.523438 4.476563 10 10 10h186.027344c5.519531 0 10-4.476562 10-10v-.160156c0-30.183594-23.949219-54.867188-53.84375-56.074219v-44.15625h31.011719c5.523437 0 10-4.476563 10-10s-4.476563-10-10-10h-263.574219c-14.121094 0-25.609375-11.488281-25.609375-25.609375v-11.367188h418.003906v11.367188c0 14.121094-11.488281 25.609375-25.609375 25.609375h-20.78125c-5.523437 0-10 4.476563-10 10s4.476563 10 10 10h20.78125c25.148438 0 45.609375-20.460937 45.609375-45.609375v-242.535156l41.691406-41.695313c16.394532-16.394531 16.394532-43.0625 0-59.457031zm-189.042968 479.6875h-163.304688c4.296875-15.15625 18.257813-26.292969 34.773438-26.292969h93.757812c16.515625 0 30.480469 11.132813 34.773438 26.292969zm-52.480469-90.390625v44.097656h-58.34375v-44.097656zm179.828125-76.976563h-418v-225.027343c0-14.121094 11.488281-25.609375 25.609375-25.609375h332.949219l-65.347656 65.347656c-11.417969.246094-22.285157 3.757812-31.53125 10.097656-.234376-.015625-.46875-.035156-.710938-.035156h-37.21875c-5.523438 0-10 4.476562-10 10s4.476562 10 10 10h19.796875c-7.800781 14.632812-6.277344 29.492188-4.988281 42.003906 1.539062 14.875 2.058594 24.734375-6.1875 33.996094h-159.574219c-7.621094 0-13.824219-6.203125-13.824219-13.824219v-.355469c0-7.621093 6.203125-13.820312 13.824219-13.820312 18.652344 0 33.824219-15.175781 33.824219-33.824219v-.355469c0-7.621093 6.199218-13.820312 13.824218-13.820312h23.304688c5.523438 0 10-4.476562 10-10s-4.476562-10-10-10h-23.304688c-18.652343 0-33.824218 15.171875-33.824218 33.820312v.355469c0 7.621094-6.203125 13.824219-13.824219 13.824219-18.648437 0-33.824219 15.171875-33.824219 33.820312v.355469c0 18.652344 15.175782 33.824219 33.824219 33.824219h182.144531c.425782 0 .839844-.035156 1.25-.085938 2.160156.070313 4.28125.105469 6.363282.105469 32.1875 0 54.8125-8.472656 73.097656-26.757812 10.6875-10.691407 16.691406-24.808594 17.015625-39.871094l65.335937-65.335937v191.171874zm-69.808594-149.644531c-2.886718-6.875-7.109375-13.195312-12.542968-18.628906-5.429688-5.429687-11.75-9.652344-18.628907-12.539063l17.582031-17.578124 31.167969 31.167968zm-92.398437 70.273438c5.085937-12.421875 3.777343-25.089844 2.660156-35.90625-1.558594-15.101563-2.789063-27.03125 9.03125-38.851563 7.214844-7.21875 16.808594-11.191406 27.011719-11.191406s19.796875 3.972656 27.011718 11.191406c7.214844 7.214844 11.1875 16.804688 11.1875 27.011719 0 10.203125-3.972656 19.792969-11.1875 27.011719-11.199218 11.199218-27.847656 22.046875-65.714843 20.734375zm209.761719-187.636719-85.640626 85.640625-31.171874-31.167969 85.640624-85.640625c4.164063-4.164062 9.699219-6.457031 15.585938-6.457031s11.421875 2.292969 15.585938 6.457031c8.59375 8.59375 8.59375 22.578125 0 31.167969zm0 0"/><path d="m203.75 169.410156c2.628906 0 5.210938-1.070312 7.070312-2.929687 1.859376-1.863281 2.929688-4.441407 2.929688-7.070313 0-2.632812-1.070312-5.210937-2.929688-7.082031-1.859374-1.859375-4.441406-2.917969-7.070312-2.917969s-5.210938 1.058594-7.070312 2.917969c-1.859376 1.871094-2.929688 4.449219-2.929688 7.082031 0 2.628906 1.070312 5.207032 2.929688 7.070313 1.859374 1.859375 4.441406 2.929687 7.070312 2.929687zm0 0"/></svg>