<?xml version="1.0" encoding="iso-8859-1"?>
<!-- Generator: Adobe Illustrator 19.0.0, SVG Export Plug-In . SVG Version: 6.00 Build 0)  -->
<svg version="1.1" id="Capa_1" xmlns="http://www.w3.org/2000/svg" xmlns:xlink="http://www.w3.org/1999/xlink" x="0px" y="0px"
	 viewBox="0 0 512 512" style="enable-background:new 0 0 512 512;" xml:space="preserve">
<path style="fill:#4AD194;" d="M429.794,305.877H26.704c-10.724,0-19.418-8.694-19.418-19.418v-88.173
	c0-10.724,8.694-19.418,19.418-19.418h403.09c10.724,0,19.418,8.694,19.418,19.418v88.173
	C449.212,297.182,440.518,305.877,429.794,305.877z"/>
<circle style="fill:#E1E6E9;" cx="83.19" cy="242.37" r="28.336"/>
<path style="fill:#4AD194;" d="M429.794,457.451H26.704c-10.724,0-19.418-8.694-19.418-19.418V349.86
	c0-10.724,8.694-19.418,19.418-19.418h403.09c10.724,0,19.418,8.694,19.418,19.418v88.173
	C449.212,448.758,440.518,457.451,429.794,457.451z"/>
<circle style="fill:#E1E6E9;" cx="83.19" cy="393.951" r="28.336"/>
<path style="fill:#4AD194;" d="M429.794,154.301H26.704c-10.724,0-19.418-8.694-19.418-19.418V46.71
	c0-10.724,8.694-19.418,19.418-19.418h403.09c10.724,0,19.418,8.694,19.418,19.418v88.173
	C449.212,145.607,440.518,154.301,429.794,154.301z"/>
<g>
	<path style="fill:#35B79E;" d="M429.794,27.292h-29.912c10.724,0,19.418,8.694,19.418,19.418v88.173
		c0,10.724-8.693,19.418-19.418,19.418h29.912c10.724,0,19.418-8.694,19.418-19.418V46.71
		C449.212,35.986,440.518,27.292,429.794,27.292z"/>
	<path style="fill:#35B79E;" d="M429.794,178.868h-29.912c10.724,0,19.418,8.694,19.418,19.418v88.173
		c0,10.724-8.693,19.418-19.418,19.418h29.912c10.724,0,19.418-8.694,19.418-19.418v-88.173
		C449.212,187.561,440.518,178.868,429.794,178.868z"/>
</g>
<path style="fill:#31BABA;" d="M429.794,330.443h-29.912c10.724,0,19.418,8.694,19.418,19.418v88.173
	c0,10.724-8.693,19.418-19.418,19.418h29.912c10.724,0,19.418-8.694,19.418-19.418V349.86
	C449.212,339.136,440.518,330.443,429.794,330.443z"/>
<circle style="fill:#E1E6E9;" cx="83.19" cy="90.801" r="28.336"/>
<path style="fill:#FFD278;" d="M427.622,479.594l-8.689,4.567c-1.39,0.731-3.051,0.731-4.442,0l-8.689-4.567
	c-47.711-25.077-77.091-71.352-77.091-121.423v-30.585c0-2.419,1.805-4.487,4.211-4.74c16.446-1.735,29.52-13.509,31.604-28.398
	c0.333-2.382,2.33-4.177,4.736-4.177h94.901c2.406,0,4.402,1.795,4.736,4.177c2.084,14.89,15.159,26.663,31.604,28.398
	c2.405,0.254,4.211,2.322,4.211,4.74v30.585C504.713,408.242,475.334,454.518,427.622,479.594z"/>
<path style="fill:#FFBF4D;" d="M500.503,322.846c-16.445-1.735-29.52-13.509-31.604-28.398c-0.333-2.382-2.33-4.177-4.736-4.177
	h-47.451v194.438c0.763,0,1.526-0.183,2.221-0.548l8.689-4.567c47.711-25.077,77.091-71.352,77.091-121.423v-30.585
	C504.713,325.169,502.908,323.101,500.503,322.846z"/>
<path style="fill:#F9AD32;" d="M500.503,322.846c-16.445-1.735-29.52-13.509-31.604-28.398c-0.333-2.382-2.33-4.177-4.736-4.177
	h-23.717c1.726,21.798,16.012,36.13,31.43,37.757c2.405,0.254,4.211,2.322,4.211,4.74v30.585c0,43.533-22.217,92.602-59.374,121.157
	v0.2c0.763,0,1.526-0.183,2.221-0.548l8.689-4.567c47.711-25.077,77.091-71.352,77.091-121.423v-30.585
	C504.713,325.169,502.908,323.101,500.503,322.846z"/>
<path d="M386.042,214.743H160.441c-4.025,0-7.287,3.262-7.287,7.287c0,4.024,3.262,7.287,7.287,7.287h225.601
	c4.025,0,7.287-3.262,7.287-7.287C393.328,218.007,390.066,214.743,386.042,214.743z"/>
<path d="M386.042,255.426H160.441c-4.025,0-7.287,3.262-7.287,7.287c0,4.025,3.262,7.287,7.287,7.287h225.601
	c4.025,0,7.287-3.262,7.287-7.287C393.329,258.688,390.066,255.426,386.042,255.426z"/>
<path d="M47.563,242.372c0,19.642,15.98,35.622,35.622,35.622c19.641,0,35.621-15.98,35.621-35.622s-15.98-35.622-35.621-35.622
	C63.543,206.749,47.563,222.73,47.563,242.372z M104.233,242.372c0,11.606-9.442,21.049-21.048,21.049s-21.049-9.443-21.049-21.049
	c0-11.607,9.443-21.049,21.049-21.049S104.233,230.766,104.233,242.372z"/>
<path d="M83.185,358.325c-19.642,0-35.622,15.98-35.622,35.622c0,19.642,15.98,35.622,35.622,35.622
	c19.641,0,35.621-15.98,35.621-35.622C118.806,374.305,102.826,358.325,83.185,358.325z M83.185,414.997
	c-11.606,0-21.049-9.443-21.049-21.049c0-11.607,9.443-21.049,21.049-21.049s21.048,9.443,21.048,21.049
	S94.791,414.997,83.185,414.997z"/>
<path d="M83.185,55.175c-19.642,0-35.622,15.98-35.622,35.622s15.98,35.622,35.622,35.622c19.641,0,35.621-15.98,35.621-35.622
	S102.826,55.175,83.185,55.175z M83.185,111.846c-11.606,0-21.049-9.443-21.049-21.049c0-11.607,9.443-21.049,21.049-21.049
	s21.048,9.443,21.048,21.049S94.791,111.846,83.185,111.846z"/>
<path d="M160.441,77.742h225.601c4.025,0,7.287-3.262,7.287-7.287s-3.262-7.287-7.287-7.287H160.441
	c-4.025,0-7.287,3.262-7.287,7.287S156.417,77.742,160.441,77.742z"/>
<path d="M160.441,118.425h225.601c4.025,0,7.287-3.262,7.287-7.287c0-4.024-3.262-7.287-7.287-7.287H160.441
	c-4.025,0-7.287,3.262-7.287,7.287C153.155,115.162,156.417,118.425,160.441,118.425z"/>
<path d="M26.704,161.588h403.09c14.725,0,26.704-11.98,26.704-26.704V46.71c0-14.725-11.979-26.704-26.704-26.704H140.895
	c-4.025,0-7.287,3.262-7.287,7.287s3.262,7.287,7.287,7.287h288.899c6.689,0,12.131,5.442,12.131,12.131v88.173
	c0,6.689-5.442,12.131-12.131,12.131H26.704c-6.689,0-12.131-5.442-12.131-12.131V46.71c0-6.689,5.442-12.131,12.131-12.131h75.472
	c4.025,0,7.287-3.262,7.287-7.287s-3.262-7.287-7.287-7.287H26.704C11.979,20.006,0,31.985,0,46.71v88.173
	C0,149.607,11.979,161.588,26.704,161.588z"/>
<path d="M501.268,315.601c-13.177-1.39-23.521-10.503-25.153-22.16c-0.833-5.96-5.972-10.455-11.952-10.455h-7.665v-20.272
	c0-4.024-3.262-7.287-7.287-7.287s-7.287,3.262-7.287,7.287v20.272h-72.663c-5.98,0-11.119,4.495-11.952,10.454
	c-0.25,1.786-0.727,3.503-1.365,5.151H26.704c-6.689,0-12.131-5.442-12.131-12.131v-88.173c0-6.689,5.442-12.131,12.131-12.131
	h403.09c6.689,0,12.131,5.442,12.131,12.131v25.286c0,4.024,3.262,7.287,7.287,7.287s7.287-3.262,7.287-7.287v-25.286
	c0-14.725-11.979-26.704-26.704-26.704H26.704C11.979,171.581,0,183.561,0,198.286v88.173c0,14.725,11.979,26.704,26.704,26.704
	h314.771c-2.864,1.246-6,2.087-9.318,2.437c-4.575,0.483-8.306,3.486-9.899,7.557v-0.001H26.704C11.979,323.156,0,335.135,0,349.86
	v88.173c0,14.725,11.979,26.704,26.704,26.704h344.63c-0.001-0.001-0.003-0.003-0.004-0.004c9.284,8.132,19.685,15.319,31.083,21.31
	l8.691,4.568c1.756,0.923,3.682,1.384,5.608,1.384c1.928,0,3.855-0.462,5.612-1.385l8.689-4.567
	C480.968,459.787,512,410.789,512,358.172v-30.584C512,321.398,507.386,316.245,501.268,315.601z M355.945,298.591
	c-0.761,1.965-1.778,3.817-3.024,5.528C354.164,302.406,355.185,300.555,355.945,298.591z M356.781,450.166H26.704
	c-6.689,0-12.131-5.442-12.131-12.131V349.86c0-6.689,5.442-12.131,12.131-12.131h294.721v20.442c0,2.728,0.103,5.442,0.268,8.148
	H160.441c-4.025,0-7.287,3.262-7.287,7.287c0,4.025,3.262,7.287,7.287,7.287h162.945c1.536,8.936,3.96,17.675,7.217,26.118
	c-0.001-0.003-0.002-0.005-0.003-0.008H160.441c-4.025,0-7.287,3.262-7.287,7.287c0,4.024,3.262,7.287,7.287,7.287H337.2
	c0-0.001-0.001-0.001-0.001-0.002c5.313,10.17,11.882,19.768,19.583,28.595C356.783,450.167,356.782,450.166,356.781,450.166z
	 M497.427,358.172c0,47.188-28.046,91.243-73.194,114.973l-7.52,3.952l-7.52-3.952c-45.148-23.73-73.194-67.785-73.194-114.973
	v-28.38c17.986-2.797,32.108-15.658,35.39-32.233h90.649c3.281,16.576,17.404,29.436,35.39,32.233v28.38H497.427z"/>
<g>
</g>
<g>
</g>
<g>
</g>
<g>
</g>
<g>
</g>
<g>
</g>
<g>
</g>
<g>
</g>
<g>
</g>
<g>
</g>
<g>
</g>
<g>
</g>
<g>
</g>
<g>
</g>
<g>
</g>
</svg>
