<?xml version="1.0" encoding="iso-8859-1"?>
<!-- Generator: Adobe Illustrator 19.0.0, SVG Export Plug-In . SVG Version: 6.00 Build 0)  -->
<svg version="1.1" id="Capa_1" xmlns="http://www.w3.org/2000/svg" xmlns:xlink="http://www.w3.org/1999/xlink" x="0px" y="0px"
	 viewBox="0 0 511.999 511.999" style="enable-background:new 0 0 511.999 511.999;" xml:space="preserve">
<path style="fill:#00AAF0;" d="M434.825,178.441l-78.049-56.768c-2.304-1.676-119.503-86.919-122.654-89.211
	c-5.716-4.158-13.462-4.158-19.179,0C193.329,48.182,40.257,159.516,14.238,178.441c-4.218,3.068-6.714,7.968-6.714,13.184V466.28
	c0,9.004,7.299,16.303,16.303,16.303h401.407c9.004,0,16.303-7.299,16.303-16.303V191.625
	C441.538,186.409,439.042,181.508,434.825,178.441z"/>
<path style="fill:#009AEF;" d="M27.571,466.28V197.639c0-5.216,2.496-10.117,6.714-13.184
	c127.4-92.663,121.979-88.719,200.704-145.979c1.346-0.979,2.807-1.719,4.326-2.237l-5.193-3.777
	c-5.716-4.158-13.462-4.158-19.179,0C193.341,48.174,40.261,159.513,14.238,178.441c-4.218,3.068-6.714,7.969-6.714,13.184V466.28
	c0,9.004,7.299,16.304,16.303,16.304h20.046C34.871,482.584,27.571,475.284,27.571,466.28z"/>
<path style="fill:#5BDDFC;" d="M216.364,323.208L23.828,482.583h401.407L232.698,323.208
	C227.96,319.286,221.103,319.286,216.364,323.208z"/>
<g>
	<path style="fill:#00C3FF;" d="M31.179,476.497l-7.352,6.085h20.04C38.738,482.582,34.167,480.204,31.179,476.497z"/>
	<path style="fill:#00C3FF;" d="M238.916,328.355l186.319,154.228c9.004,0,16.303-7.299,16.303-16.304V191.625L238.916,328.355z"/>
	<path style="fill:#00C3FF;" d="M7.524,191.625V466.28c0,9.004,7.299,16.304,16.303,16.304l186.318-154.227L7.524,191.625z"/>
</g>
<path style="fill:#00AAF0;" d="M27.571,205.153L7.524,191.625l0,0V466.28c0,9.003,7.298,16.303,16.303,16.303l7.352-6.085
	c-2.253-2.796-3.608-6.347-3.608-10.218C27.571,466.28,27.571,205.153,27.571,205.153z"/>
<path style="fill:#E4EAF8;" d="M301.35,155.421c0-31.402,14.181-59.48,36.475-78.219H88.441c-6.977,0-12.633,5.656-12.633,12.633
	v147.868l134.339,90.652l6.218-5.148c4.738-3.922,11.596-3.922,16.334,0l6.217,5.147l120.029-80.996
	C324.855,230.808,301.35,195.862,301.35,155.421z"/>
<path style="fill:#D8DCE5;" d="M95.853,77.203H88.44c-6.977,0-12.633,5.656-12.633,12.633v147.868l20.046,13.527V77.203z"/>
<circle style="fill:#7CE854;" cx="403.302" cy="155.419" r="102.346"/>
<path style="fill:#5EC62E;" d="M320.607,155.421c0-53.208,40.606-96.927,92.52-101.871c-3.233-0.308-6.51-0.471-9.824-0.471
	c-56.523,0-102.342,45.821-102.342,102.343s45.821,102.343,102.342,102.343c3.315,0,6.59-0.163,9.824-0.471
	C361.213,252.348,320.607,208.629,320.607,155.421z"/>
<path style="fill:#E4EAF8;" d="M383.104,195.738l-29.581-28.513c-6.127-5.906-6.307-15.659-0.401-21.785
	c5.907-6.128,15.66-6.305,21.785-0.401l17.87,17.225l36.196-41.876c5.565-6.437,15.295-7.147,21.731-1.581
	c6.439,5.564,7.147,15.293,1.582,21.731l-46.833,54.182C399.684,201.394,389.477,201.88,383.104,195.738z"/>
<path style="fill:#D8DCE5;" d="M402.482,186.087l-29.581-28.513c-4.443-4.283-5.742-10.585-3.876-16.065
	c-5.441-1.785-11.661-0.471-15.903,3.93c-5.906,6.126-5.726,15.88,0.401,21.785l29.582,28.513
	c6.365,6.134,16.572,5.664,22.349-1.018l4.118-4.764C406.93,189.32,404.476,188.008,402.482,186.087z"/>
<path d="M128.223,246.126h192.602c4.153,0,7.517-3.365,7.517-7.517c0-4.153-3.365-7.517-7.517-7.517H128.223
	c-4.153,0-7.517,3.365-7.517,7.517C120.706,242.761,124.071,246.126,128.223,246.126z"/>
<path d="M458.475,113.164c-9.673-8.366-24.12-7.155-32.336,2.351l-31.007,35.872l-12.156-11.717
	c-14.603-14.075-39.206-3.53-38.83,16.928c0.112,6.121,2.603,11.834,7.011,16.084l29.583,28.513
	c9.631,9.279,24.805,8.256,33.252-1.515l46.833-54.183C469.111,135.912,468.063,121.449,458.475,113.164z M449.452,135.665
	l-46.833,54.182c-3.045,3.525-8.298,3.554-11.444,0.522l-29.582-28.512c-5.085-4.902-1.612-13.571,5.48-13.571
	c2.052,0,3.989,0.782,5.471,2.21l17.87,17.225c1.486,1.432,3.511,2.193,5.559,2.097c2.063-0.094,3.995-1.031,5.345-2.594
	l36.196-41.875c2.807-3.249,7.774-3.712,11.13-0.81C451.942,127.387,452.304,132.365,449.452,135.665z"/>
<path d="M497.047,141.181c0.621,4.105,4.458,6.92,8.558,6.309c4.105-0.621,6.929-4.452,6.309-8.558
	c-8.09-53.463-54.253-93.132-108.425-93.132c-25.802,0-49.547,8.962-68.297,23.929h-37.122l-59.536-43.302
	c-8.38-6.094-19.642-6.096-28.023,0l-59.536,43.302H88.433c-11.112,0-20.151,9.04-20.151,20.151v39.996L9.81,172.405
	C3.666,176.872,0,184.073,0,191.668v274.655c0,13.134,10.686,23.821,23.821,23.821h0.007c0.006,0,0.012,0,0.018,0h184.433
	c4.153,0,7.517-3.365,7.517-7.517c0-4.153-3.365-7.517-7.517-7.517H44.691l176.461-146.066c1.955-1.62,4.792-1.619,6.746,0.001
	c6.922,5.728,168.65,139.601,176.46,146.065H243.36c-4.153,0-7.517,3.365-7.517,7.517c0,4.153,3.365,7.517,7.517,7.517h181.867
	c13.208,0,23.821-10.775,23.821-23.821V255.182c31.34-14.359,55.14-43.111,62.067-78.606c0.795-4.074-1.863-8.023-5.939-8.818
	c-4.084-0.797-8.023,1.864-8.818,5.939c-7.865,40.306-40.783,70.109-79.957,75.506c-57.17,7.841-107.541-36.784-107.541-93.74
	c0-52.387,42.643-94.63,94.63-94.63C449.896,60.834,490.117,95.376,497.047,141.181z M224.524,312.798
	c-7.884,0-12.318,4.133-14.843,6.222c-6.863-4.631-42.653-28.783-46.415-31.321h122.518l-46.414,31.321
	C237.194,317.22,232.611,312.798,224.524,312.798z M219.356,38.586c3.091-2.249,7.246-2.247,10.337,0l42.819,31.143h-95.974
	L219.356,38.586z M83.318,89.879c0-2.821,2.295-5.116,5.116-5.116c17.03,0,220.912,0,231.236,0
	c-14.94,17.684-23.992,39.856-25.583,63.183H128.223c-4.153,0-7.517,3.365-7.517,7.517c0,4.153,3.365,7.517,7.517,7.517h165.863
	c0.599,8.975,2.342,17.944,5.145,26.538H128.223c-4.153,0-7.517,3.365-7.517,7.517c0,4.153,3.365,7.517,7.517,7.517h177.187
	c8.912,17.776,22.482,32.791,39.207,43.443c-30.694,20.713-16.968,11.45-36.554,24.667H140.986L83.318,233.75
	C83.318,225.489,83.318,96.787,83.318,89.879z M18.652,184.563l49.631-36.098v75.14l-52.504-35.43
	C16.397,186.755,17.372,185.495,18.652,184.563z M15.035,205.811c6.959,4.696,175.473,118.411,182.574,123.202L21.501,474.788
	c-3.893-1.072-6.466-4.609-6.466-8.465V205.811z M434.014,260.802v205.521c0,3.978-2.676,7.421-6.466,8.465
	c-5.648-4.675-168.013-139.075-176.108-145.776c6.326-4.269,102.741-69.33,108.195-73.012
	C383.706,266.54,410.277,267.697,434.014,260.802z"/>
<g>
</g>
<g>
</g>
<g>
</g>
<g>
</g>
<g>
</g>
<g>
</g>
<g>
</g>
<g>
</g>
<g>
</g>
<g>
</g>
<g>
</g>
<g>
</g>
<g>
</g>
<g>
</g>
<g>
</g>
</svg>
